<svg width="651" height="262" viewBox="0 0 651 262" fill="none" xmlns="http://www.w3.org/2000/svg">
<path d="M584.231 244.452C602.36 227.992 616.964 123.293 622 73C374.786 126.767 122.994 95.403 28 73C34.6381 121.464 52.4467 223.603 70.5757 244.452C93.237 270.512 561.57 265.026 584.231 244.452Z" fill="#DAF2F2"/>
<path fill-rule="evenodd" clip-rule="evenodd" d="M341.937 0H341.825C286.739 0 203.914 2.36336 134.497 9.48767C99.8669 13.0418 68.0944 17.8263 44.6711 24.247C33.0314 27.4376 22.8 31.2027 15.2015 35.799C8.01996 40.1432 0.485352 46.9166 0.0227661 56.9422C-0.440796 66.9911 6.24353 74.1081 13.053 78.6784C20.0483 83.3733 29.5756 87.1138 40.3212 90.2201C61.9785 96.4806 91.6187 100.997 123.964 104.249C188.836 110.772 266.757 112.406 318.709 111.92L318.719 111.92L318.729 111.92C372.341 111.313 452.91 108.367 520.35 101.472C553.998 98.032 584.81 93.5679 607.464 87.7965C618.713 84.9308 628.582 81.5898 635.898 77.5578C642.471 73.9351 650.632 67.7285 650.988 57.7752C651.34 47.9094 644.012 41.3532 637.757 37.4582C630.996 33.2478 621.811 29.7704 611.416 26.79C590.458 20.7806 561.787 16.0282 530.464 12.2825C467.659 4.77177 392.287 1.09494 342.05 0.0024482L341.937 0ZM341.712 20.4878C391.581 21.5753 466.159 25.2277 528.005 32.6237C559.031 36.3341 586.38 40.9336 605.709 46.4759C615.458 49.2712 622.483 52.1195 626.824 54.8227C628.34 55.7664 629.251 56.5074 629.79 57.0272C629.14 57.616 627.971 58.5031 625.912 59.6379C620.882 62.4099 613.004 65.2359 602.352 67.9495C581.207 73.3365 551.611 77.6802 518.243 81.0916C451.657 87.8991 371.772 90.8304 318.506 91.4335C266.966 91.9151 189.872 90.2837 126.036 83.8655C94.0251 80.6471 65.8865 76.2745 46.0714 70.5465C36.0809 67.6586 28.9487 64.63 24.5774 61.6961C22.4279 60.2534 21.3641 59.108 20.8915 58.4109C20.7205 58.1587 20.6476 57.996 20.6191 57.921C20.7614 57.5645 21.5948 55.9118 25.9073 53.3032C31.1019 50.161 39.2007 46.9983 50.1454 43.9982C71.891 38.0374 102.304 33.3883 136.612 29.8672C205.024 22.846 287.019 20.491 341.712 20.4878ZM630.522 57.9148C630.524 57.9146 630.517 57.8967 630.497 57.8613C630.511 57.8972 630.521 57.9149 630.522 57.9148Z" fill="white"/>
<path fill-rule="evenodd" clip-rule="evenodd" d="M341.144 21C391.021 22.0872 465.61 25.7383 527.466 33.1318C558.497 36.8409 585.85 41.4388 605.183 46.9791C614.933 49.7735 621.96 52.6209 626.301 55.3231C627.817 56.2665 628.728 57.0073 629.267 57.5269C628.617 58.1155 627.448 59.0023 625.388 60.1367C620.358 62.9077 612.478 65.7328 601.825 68.4454C580.677 73.8306 551.076 78.1727 517.703 81.583C451.106 88.3882 371.208 91.3184 317.934 91.9213C266.386 92.4027 189.28 90.7719 125.434 84.3559C93.4177 81.1386 65.2745 76.7675 45.4564 71.0415C35.4643 68.1546 28.3309 65.127 23.9589 62.1941C21.8091 60.752 20.7452 59.6069 20.2725 58.9101C20.1014 58.6579 20.0286 58.4953 20 58.4204C20.1424 58.064 20.9759 56.4119 25.2891 53.8041C30.4844 50.663 38.5845 47.5014 49.5309 44.5023C71.28 38.5435 101.698 33.896 136.011 30.3762C204.434 23.3574 286.442 21.0032 341.144 21ZM630 58.4141C630 58.4141 629.995 58.396 629.975 58.3606C629.989 58.3965 630 58.4141 630 58.4141Z" fill="#BDDCDE"/>
</svg>
