<svg width="1103" height="375" viewBox="0 0 1103 375" fill="none" xmlns="http://www.w3.org/2000/svg">
<path fill-rule="evenodd" clip-rule="evenodd" d="M722.983 40.9846C704.892 16.1446 675.582 0 642.5 0C587.548 0 543 44.5477 543 99.5C543 99.5926 543 99.6851 543 99.7777C538.906 99.2644 534.734 99 530.5 99C479.864 99 438.063 136.824 431.808 185.759C402.447 190.407 380 215.832 380 246.5C380 280.466 407.534 308 441.5 308C459.486 308 475.669 300.279 486.914 287.971C500.077 294.395 514.867 298 530.5 298C561.958 298 590.005 283.402 608.239 260.61C625.709 275.802 648.53 285 673.5 285C674.008 285 674.514 284.996 675.02 284.989C705.973 327.996 756.466 356 813.5 356C853.44 356 890.173 342.267 919.233 319.265C937.791 331.125 959.843 338 983.5 338C1049.5 338 1103 284.498 1103 218.5C1103 152.502 1049.5 99 983.5 99C976.027 99 968.714 99.686 961.621 100.998C932.248 49.6234 876.918 15 813.5 15C780.245 15 749.214 24.5205 722.983 40.9846Z" fill="white" fill-opacity="0.6"/>
<path fill-rule="evenodd" clip-rule="evenodd" d="M172.456 176.104C160.367 166.393 143.961 162.397 127.849 166.762C101.085 174.013 85.266 201.588 92.5169 228.352L92.5537 228.487C90.4917 228.778 88.4249 229.199 86.3629 229.758C61.7011 236.439 46.3328 260.377 49.7435 285.036C36.0568 291.173 28.4788 306.518 32.5254 321.455C37.0071 337.998 54.0507 347.775 70.5933 343.293C79.3533 340.92 86.2161 335.024 90.0693 327.546C97.3276 328.938 105.007 328.742 112.621 326.679C127.942 322.529 139.676 311.718 145.549 298.211C156.062 303.306 168.391 304.774 180.553 301.479C180.8 301.412 181.046 301.344 181.291 301.273C202.042 318.135 230.329 325.112 258.107 317.586C277.559 312.316 293.638 300.781 304.756 285.744C315.36 289.071 327.007 289.51 338.529 286.388C370.673 277.68 389.671 244.563 380.963 212.419C372.254 180.275 339.137 161.277 306.993 169.985C303.353 170.971 299.882 172.27 296.601 173.845C275.516 152.699 243.999 143.137 213.112 151.505C196.916 155.893 183.059 164.624 172.456 176.104Z" fill="white" fill-opacity="0.6"/>
</svg>
